<?xml version="1.0" encoding="utf-8"?>
<!-- Generator: Adobe Illustrator 22.1.0, SVG Export Plug-In . SVG Version: 6.00 Build 0)  -->
<svg version="1.1" id="Layer_1" xmlns="http://www.w3.org/2000/svg" xmlns:xlink="http://www.w3.org/1999/xlink" x="0px" y="0px"
	 viewBox="0 0 208.9 207.2" style="enable-background:new 0 0 208.9 207.2;" xml:space="preserve">
<style type="text/css">
	.st0{fill:#FFFFFF;}
</style>
<g>
	<path class="st0" d="M85.8,21.3C90.5,15.4,95,9.7,99.6,4.1c4.6-5.6,6.7-5.5,10.7,0.8c6.2,9.8,12.3,19.7,18.7,29.8
		c4.2-2,8-3.9,11.9-5.8c5.8-2.9,7-2.4,9.7,3.7c4.1,9.1,8.2,18.1,12.1,27.3c1.1,2.5,2.3,3.3,5.1,3.4c3.2,0.1,6.6,1,9.6,2.2
		c5.7,2.3,11.2,2.3,16.9-0.1c2.7-1.1,5.8-2.2,8.6-2.1c1.9,0.1,3.6,2.5,5.3,3.9c-1.4,1.6-2.4,3.9-4.1,4.7c-3.1,1.4-6.7,1.7-10,2.8
		c-5.6,2-11.1,2.3-16.5-0.1c-6.6-2.9-13.1-2.9-19.7,0c-5.4,2.4-11.1,2.3-16.5-0.1c-6.5-2.8-12.8-2.8-19.2,0
		c-5.6,2.4-11.4,2.4-17-0.1c-6.3-2.8-12.5-2.8-18.7,0c-5.8,2.6-11.7,2.5-17.4,0C63,71.9,57,71.7,50.9,74.4c-5.9,2.6-12,2.6-17.9,0
		c-6.1-2.7-12.1-2.4-18.3,0c-2.9,1.1-6.1,1.7-9.2,1.7c-1.4,0-3.6-2.2-3.8-3.5c-0.2-1.4,1.5-4,2.9-4.4c10.7-2.9,21.1-7.6,32.7-1.8
		c6.5,3.2,8.6,1.3,12-4.5c7-12.1,14.3-24,21.5-35.9C76,17.1,76,17.1,85.8,21.3z M59.2,62.4c3.8,1.1,7.4,1.9,10.7,3.2
		c5.4,2.1,10.6,2.3,15.9-0.1c6.8-3.1,13.3-2.6,20.3-0.1c3.8,1.3,8.8,2.2,12.4,0.9c9.2-3.3,17.9-3.6,27,0.1c2.8,1.2,6.5,0.2,10.7,0.2
		c-4.7-10.4-8.8-19.5-13-28.8c-2.3,1.1-4,2-5.8,2.8c-12.5,6.1-10.6,7.3-18.5-5.3c-4.7-7.5-9.4-15-14.4-23
		c-4.6,5.8-8.8,10.9-12.9,16.1c-2.3,3-4.9,3.7-8.2,1.9c-1.1-0.6-2.4-1-3.9-1.7C72.6,40,65.9,51.2,59.2,62.4z"/>
	<path class="st0" d="M114.6,181.7c-6.3,7.6-12.2,14.8-18.2,21.9c-4.1,4.9-6.3,4.7-10.1-0.4c-21.5-28.6-42.9-57.3-64.4-85.8
		c-2.3-3.1-2.8-5.5-0.6-8.9c4.2-6.4,8.1-13,11.7-19.7c1.7-3.1,3.6-4.4,7.1-3.4c1.5,0.4,3.2,0.1,5.3,0.1c-4.9,8.1-9.5,15.9-14.3,23.7
		c-1.3,2-1.7,3.5,0,5.7c19.8,26.1,39.4,52.4,59.2,78.6c0.4,0.5,0.9,1,1.5,1.7c5.8-6.9,11.4-13.6,17-20.4c3.8-4.5,5.1-4.7,9.8-1.2
		c4,3,8,5.9,12.3,9.1c6.5-10.1,12.9-19.8,19.2-29.6c8.1-12.6,16.2-25.2,24.5-37.7c1.5-2.3,1.6-4.2,0.5-6.8
		c-4-8.6-7.7-17.2-11.6-25.9c6.3-2.9,8.8-2,11.4,4c3.2,7.3,6.8,14.5,9.5,21.9c0.9,2.4,0.8,6.1-0.5,8.2c-15.5,24.4-31.3,48.7-47,72.9
		c-2.9,4.5-4.9,4.8-9.3,1.5C123.2,188.2,119.1,185.1,114.6,181.7z"/>
</g>
</svg>
