<?xml version="1.0" encoding="utf-8"?>
<!-- Generator: Adobe Illustrator 22.1.0, SVG Export Plug-In . SVG Version: 6.00 Build 0)  -->
<svg version="1.1" id="Layer_1" xmlns="http://www.w3.org/2000/svg" xmlns:xlink="http://www.w3.org/1999/xlink" x="0px" y="0px"
	 viewBox="0 0 50 50" style="enable-background:new 0 0 50 50;" xml:space="preserve">
<style type="text/css">
	.st0{fill:#C8C8C8;}
	.st1{fill:#FFFFFF;}
</style>
<g>
	<path class="st0" d="M25,44.4c-6.5,0-12.9,0-19.4,0c-1.7,0-3.1-0.5-3.9-2.1c-0.3-0.5-0.5-1.2-0.5-1.8c0-10.3,0-20.6,0-31
		c0-2.4,1.6-3.9,4.1-3.9c6.4,0,12.8,0,19.2,0c6.6,0,13.3,0,20,0c2,0,3.5,1,4,2.7c0.1,0.4,0.2,0.7,0.2,1c0,10.5,0,20.9,0,31.4
		c0,2-1.4,3.5-3.3,3.7c-0.4,0-0.8,0-1.3,0C37.7,44.4,31.3,44.4,25,44.4z M25,41.4c6.4,0,12.8,0,19.2,0c1.3,0,1.5-0.2,1.5-1.5
		c0-10,0-20,0-29.9c0-1.3-0.2-1.5-1.5-1.5c-12.8,0-25.7,0-38.5,0c-1.3,0-1.4,0.1-1.4,1.5c0,10,0,20,0,30c0,1.3,0.2,1.5,1.5,1.5
		C12.2,41.4,18.6,41.4,25,41.4z"/>
	<path class="st0" d="M30.6,34.2c1.3-1.3,2.5-2.4,3.8-3.6c1-1,1.7-1,2.5,0.3c1.2,1.6,2.4,3.3,3.6,4.9c0.3,0.5,0.5,1,0.3,1.5
		S40,38,39.4,38c-9.6,0-19.2,0-28.8,0c-0.6,0-1.1,0-1.4-0.7c-0.3-0.6-0.1-1,0.2-1.5c3.1-4.8,6.3-9.6,9.4-14.4c0.7-1,1.6-1.1,2.4,0
		c3.1,4.2,6.1,8.4,9.3,12.6C30.4,33.9,30.5,34,30.6,34.2z"/>
	<path class="st0" d="M29.8,16.8c0-2.4,2-4.4,4.4-4.4s4.4,2,4.4,4.4c0,2.4-2,4.4-4.4,4.4C31.8,21.3,29.8,19.3,29.8,16.8z"/>
</g>
<g>
	<path class="st1" d="M-40.2,44.4c-6.5,0-12.9,0-19.4,0c-1.7,0-3.1-0.5-3.9-2.1c-0.3-0.5-0.5-1.2-0.5-1.8c0-10.3,0-20.6,0-31
		c0-2.4,1.6-3.9,4.1-3.9c6.4,0,12.8,0,19.2,0c6.7,0,13.4,0,20,0c2,0,3.5,1,4,2.7c0.1,0.4,0.2,0.7,0.2,1c0,10.5,0,20.9,0,31.4
		c0,2-1.4,3.5-3.3,3.7c-0.4,0-0.8,0-1.3,0C-27.5,44.4-33.8,44.4-40.2,44.4z M-40.2,41.4c6.4,0,12.8,0,19.2,0c1.3,0,1.5-0.2,1.5-1.5
		c0-10,0-20,0-29.9c0-1.3-0.2-1.5-1.5-1.5c-12.9,0-25.7,0-38.5,0c-1.3,0-1.4,0.1-1.4,1.5c0,10,0,20,0,30c0,1.3,0.2,1.5,1.5,1.5
		C-53,41.4-46.6,41.4-40.2,41.4z"/>
	<path class="st1" d="M-34.5,34.2c1.3-1.3,2.6-2.4,3.8-3.6c1-1,1.7-1,2.5,0.3c1.2,1.6,2.4,3.3,3.6,4.9c0.3,0.5,0.5,1,0.3,1.5
		s-0.8,0.7-1.4,0.7c-9.6,0-19.2,0-28.9,0c-0.6,0-1.1,0-1.5-0.7c-0.3-0.6-0.1-1,0.2-1.5c3.2-4.8,6.3-9.6,9.4-14.4
		c0.7-1,1.6-1.1,2.3,0c3.1,4.2,6.2,8.4,9.3,12.6C-34.7,33.9-34.6,34-34.5,34.2z"/>
	<path class="st1" d="M-35.4,16.8c0-2.4,2-4.4,4.4-4.4s4.4,2,4.4,4.4c0,2.4-2,4.4-4.4,4.4C-33.4,21.3-35.4,19.3-35.4,16.8z"/>
</g>
<g>
	<path class="st0" d="M101.3,35.4c-0.2,0.3-0.3,0.4-0.4,0.5c-1.9,1.9-3.8,3.9-5.8,5.8c-2.9,2.8-6.4,3.9-10.3,3
		c-5.3-1.2-8.4-6.5-7.2-11.9c0.5-2.2,1.5-4.1,3.1-5.6c2.5-2.5,5.1-5.1,7.7-7.6c3.5-3.3,9.2-3.7,13.2-0.9c1.1,0.8,2,1.6,2,3.1
		c0,1.3-0.6,2.3-1.8,2.8c-1.2,0.5-2.4,0.5-3.3-0.5c-1.8-1.9-5.1-1.9-7,0.2c-2.2,2.2-4.5,4.5-6.7,6.7c-1.2,1.3-1.7,2.8-1.4,4.5
		c0.7,3.4,4.6,4.8,7.5,2.7c0.9-0.7,1.7-1.6,2.6-2.4c0.4-0.4,0.8-0.6,1.4-0.4C96.9,35.9,99,36.1,101.3,35.4z"/>
	<path class="st0" d="M93.5,14.3c2.5-2.4,4.8-5,7.6-7.1c4.5-3.6,11.9-2.9,15.1,3c2,3.7,1.4,8.8-1.6,12.1c-2.7,2.8-5.4,5.6-8.3,8.3
		c-3.8,3.6-10,3.7-13.9,0.3c-1.5-1.3-1.7-3.1-0.5-4.5c1.2-1.4,3-1.5,4.5-0.2c2.1,1.9,5.1,1.6,7-0.3c2.2-2.2,4.4-4.4,6.6-6.6
		c1.9-2,2-4.8,0.3-6.8c-1.6-1.9-4.8-1.9-6.8-0.1c-0.8,0.7-1.6,1.6-2.4,2.3c-0.2,0.2-0.5,0.3-0.8,0.3c-2.1-0.6-4.3-0.8-6.4-0.3
		c-0.1,0-0.2,0-0.3,0C93.5,14.4,93.5,14.4,93.5,14.3z"/>
</g>
</svg>
