<?xml version="1.0" encoding="utf-8"?>
<!-- Generator: Adobe Illustrator 22.1.0, SVG Export Plug-In . SVG Version: 6.00 Build 0)  -->
<svg version="1.1" id="Layer_1" xmlns="http://www.w3.org/2000/svg" xmlns:xlink="http://www.w3.org/1999/xlink" x="0px" y="0px"
	 viewBox="0 0 100 100" style="enable-background:new 0 0 100 100;" xml:space="preserve">
<style type="text/css">
	.st0{fill-rule:evenodd;clip-rule:evenodd;fill:#525151;}
</style>
<g>
	<path class="st0" d="M50.9,41.9c-9.2,0-16.6-7.3-16.6-16.3c0-8.9,7.5-16.2,16.6-16.2c9.3,0,16.7,7.3,16.7,16.2
		C67.6,34.6,60.1,41.9,50.9,41.9L50.9,41.9z M50.9,12.8c-7.2,0-13.1,5.8-13.1,12.8c0,7.1,5.9,12.9,13.1,12.9
		c7.3,0,13.2-5.8,13.2-12.9C64.1,18.6,58.1,12.8,50.9,12.8L50.9,12.8z"/>
	<path class="st0" d="M69.6,90.6c-0.9,0-1.8-0.8-1.8-1.8c0-28.2,0-28.2,0-28.2c0-0.3,0.1-0.7,0.3-0.9c18.1-26.5,18.1-26.5,18.1-26.5
		c0.8-1.1,1.1-2.6,0.8-4c-0.2-1.4-0.9-2.5-2.1-3.3s-2.6-1-3.9-0.8c-1.3,0.2-2.5,1-3.3,2.2c-14,20.3-14,20.3-14,20.3
		c-0.5,0.8-1.5,1-2.3,0.5c-1.9-1-4-1.6-6.1-1.6c-9.6,0-9.6,0-9.6,0c-2.4,0-4.8,0.7-6.8,2c-0.8,0.5-1.9,0.3-2.4-0.4
		C22.2,27.3,22.2,27.3,22.2,27.3c-0.8-1.1-2-2-3.3-2.2c-1.3-0.2-2.8,0-3.9,0.8s-1.9,2-2.1,3.3c-0.3,1.4,0,2.8,0.8,4
		c19.2,28,19.2,28,19.2,28c0.2,0.3,0.3,0.6,0.3,1c0,26.4,0,26.4,0,26.4c0,0.9-0.7,1.8-1.8,1.8c-0.9,0-1.8-0.8-1.8-1.8
		c0-25.8,0-25.8,0-25.8C10.8,35.2,10.8,35.2,10.8,35.2c-1.3-2-1.9-4.3-1.5-6.6s1.8-4.3,3.6-5.6c2-1.4,4.3-1.9,6.5-1.4
		c2.3,0.4,4.3,1.7,5.6,3.5c13.4,19.6,13.4,19.6,13.4,19.6c2.3-1.1,4.8-1.8,7.3-1.8c9.6,0,9.6,0,9.6,0c2.2,0,4.4,0.4,6.4,1.4
		c13.1-19.2,13.1-19.2,13.1-19.2c1.3-1.9,3.3-3.1,5.6-3.5c2.3-0.5,4.6,0,6.5,1.4c1.9,1.4,3.2,3.3,3.6,5.6c0.4,2.3-0.1,4.6-1.5,6.6
		c-17.8,26-17.8,26-17.8,26c0,27.6,0,27.6,0,27.6C71.4,89.8,70.6,90.6,69.6,90.6L69.6,90.6z"/>
</g>
</svg>
