<?xml version="1.0" encoding="utf-8"?>
<!-- Generator: Adobe Illustrator 22.1.0, SVG Export Plug-In . SVG Version: 6.00 Build 0)  -->
<svg version="1.1" id="Layer_1" xmlns="http://www.w3.org/2000/svg" xmlns:xlink="http://www.w3.org/1999/xlink" x="0px" y="0px"
	 viewBox="0 0 50 50" style="enable-background:new 0 0 50 50;" xml:space="preserve">
<style type="text/css">
	.st0{fill:#525151;}
</style>
<g>
	<path class="st0" d="M25.7,24.1c-4,0-7.2-3.2-7.2-7.1s3.3-7.1,7.2-7.1c4,0,7.3,3.2,7.3,7.1S29.8,24.1,25.7,24.1L25.7,24.1z
		 M25.7,11.4C22.6,11.4,20,14,20,17c0,3.1,2.6,5.6,5.7,5.6c3.2,0,5.8-2.5,5.8-5.6C31.5,14,28.9,11.4,25.7,11.4L25.7,11.4z"/>
	<path class="st0" d="M33.9,45.3c-0.4,0-0.8-0.4-0.8-0.8c0-12.3,0-12.3,0-12.3c0-0.1,0-0.3,0.1-0.4c7.9-11.5,7.9-11.5,7.9-11.5
		c0.4-0.5,0.5-1.1,0.4-1.7s-0.4-1.1-0.9-1.5s-1.1-0.5-1.7-0.4c-0.6,0.1-1.1,0.5-1.4,1c-6.1,8.8-6.1,8.8-6.1,8.8
		c-0.2,0.4-0.6,0.5-1,0.2c-0.8-0.5-1.8-0.7-2.7-0.7c-4.2,0-4.2,0-4.2,0c-1,0-2.1,0.3-3,0.9c-0.4,0.2-0.8,0.1-1-0.2
		c-6.2-9.1-6.2-9.1-6.2-9.1c-0.4-0.5-0.9-0.9-1.4-1c-0.6-0.1-1.2,0-1.7,0.4s-0.8,0.9-0.9,1.5c-0.1,0.6,0,1.2,0.4,1.7
		c8.4,12.2,8.4,12.2,8.4,12.2c0.1,0.1,0.1,0.3,0.1,0.5c0,11.5,0,11.5,0,11.5c0,0.4-0.3,0.8-0.8,0.8c-0.4,0-0.8-0.4-0.8-0.8
		c0-11.2,0-11.2,0-11.2c-8.2-12-8.2-12-8.2-12c-0.6-0.9-0.8-1.9-0.6-2.9s0.8-1.9,1.6-2.4c0.9-0.6,1.9-0.8,2.8-0.6
		c1,0.2,1.9,0.7,2.4,1.5c5.8,8.5,5.8,8.5,5.8,8.5c1-0.5,2.1-0.8,3.2-0.8c4.2,0,4.2,0,4.2,0c0.9,0,1.9,0.2,2.8,0.6
		c5.7-8.3,5.7-8.3,5.7-8.3c0.6-0.8,1.4-1.4,2.4-1.5c1-0.2,2,0,2.8,0.6s1.4,1.5,1.6,2.4c0.2,1,0,2-0.6,2.9
		c-7.8,11.3-7.8,11.3-7.8,11.3c0,12,0,12,0,12C34.7,45,34.4,45.3,33.9,45.3L33.9,45.3z"/>
</g>
<path class="st0" d="M25,47.9C12.4,47.9,2.1,37.6,2.1,25S12.4,2.1,25,2.1S47.9,12.4,47.9,25S37.6,47.9,25,47.9z M25,3.6
	C13.2,3.6,3.6,13.2,3.6,25S13.2,46.4,25,46.4S46.4,36.8,46.4,25S36.8,3.6,25,3.6z"/>
</svg>
