<?xml version="1.0" encoding="utf-8"?>
<!-- Generator: Adobe Illustrator 22.1.0, SVG Export Plug-In . SVG Version: 6.00 Build 0)  -->
<svg version="1.1" id="Layer_1" xmlns="http://www.w3.org/2000/svg" xmlns:xlink="http://www.w3.org/1999/xlink" x="0px" y="0px"
	 viewBox="0 0 100 100" style="enable-background:new 0 0 100 100;" xml:space="preserve">
<style type="text/css">
	.st0{fill:#FFFFFF;}
</style>
<g>
	<path class="st0" d="M50.5,48.1c-8.7,0-15.7-7-15.7-15.5S42,17.1,50.5,17.1c8.7,0,15.9,7,15.9,15.5S59.5,48.1,50.5,48.1L50.5,48.1z
		 M50.5,20.4c-6.8,0-12.4,5.7-12.4,12.2c0,6.8,5.7,12.2,12.4,12.2c7,0,12.7-5.5,12.7-12.2C63.2,26.1,57.5,20.4,50.5,20.4L50.5,20.4z
		"/>
	<path class="st0" d="M68.4,94.4c-0.9,0-1.7-0.9-1.7-1.7c0-26.9,0-26.9,0-26.9c0-0.2,0-0.7,0.2-0.9c17.2-25.1,17.2-25.1,17.2-25.1
		c0.9-1.1,1.1-2.4,0.9-3.7c-0.2-1.3-0.9-2.4-2-3.3C82,32,80.7,31.8,79.4,32s-2.4,1.1-3.1,2.2C63,53.4,63,53.4,63,53.4
		c-0.4,0.9-1.3,1.1-2.2,0.4c-1.7-1.1-3.9-1.5-5.9-1.5c-9.2,0-9.2,0-9.2,0c-2.2,0-4.6,0.7-6.6,2c-0.9,0.4-1.7,0.2-2.2-0.4
		C23.5,34,23.5,34,23.5,34c-0.9-1.1-2-2-3.1-2.2c-1.3-0.2-2.6,0-3.7,0.9c-1.1,0.9-1.7,2-2,3.3c-0.2,1.3,0,2.6,0.9,3.7
		C34,66.3,34,66.3,34,66.3c0.2,0.2,0.2,0.7,0.2,1.1c0,25.1,0,25.1,0,25.1c0,0.9-0.7,1.7-1.7,1.7c-0.9,0-1.7-0.9-1.7-1.7
		c0-24.5,0-24.5,0-24.5C12.8,41.8,12.8,41.8,12.8,41.8c-1.3-2-1.7-4.1-1.3-6.3s1.7-4.1,3.5-5.2c2-1.3,4.1-1.7,6.1-1.3
		c2.2,0.4,4.1,1.5,5.2,3.3C39,50.8,39,50.8,39,50.8c2.2-1.1,4.6-1.7,7-1.7c9.2,0,9.2,0,9.2,0c2,0,4.1,0.4,6.1,1.3
		c12.4-18.1,12.4-18.1,12.4-18.1c1.3-1.7,3.1-3.1,5.2-3.3c2.2-0.4,4.4,0,6.1,1.3c1.7,1.3,3.1,3.3,3.5,5.2c0.4,2.2,0,4.4-1.3,6.3
		c-17,24.7-17,24.7-17,24.7c0,26.2,0,26.2,0,26.2C70.2,93.8,69.5,94.4,68.4,94.4L68.4,94.4z"/>
</g>
<path class="st0" d="M50,100C22.5,100,0,77.5,0,50S22.5,0,50,0s50,22.5,50,50S77.5,100,50,100z M50,3.3C24.2,3.3,3.3,24.2,3.3,50
	s21,46.7,46.7,46.7s46.7-21,46.7-46.7S75.8,3.3,50,3.3z"/>
</svg>
